<?xml version="1.0" encoding="UTF-8"?>
<svg version="1.1" xmlns="http://www.w3.org/2000/svg" width="96" height="96">
<path d="M0 0 C11.88430966 11.65922804 15.20787807 27.51560043 15.375 43.6484375 C15.41850586 45.05996094 15.41850586 45.05996094 15.46289062 46.5 C15.52622193 53.35926802 15.52622193 53.35926802 13.24609375 56.625 C10.5371245 58.35990338 8.2419295 58.73439845 5.0625 59.0234375 C4.02123045 54.97253359 3.02141243 50.93403317 2.203125 46.83203125 C-0.71245924 32.34131432 -4.5787839 18.15800885 -14.9375 7.0234375 C-19.36550456 4.17434294 -23.84844826 4.25448737 -28.9375 5.0234375 C-42.66692647 9.61195635 -52.02774633 20.56787889 -58.88378906 32.91064453 C-62.24618865 39.6525829 -64.57110422 46.88620522 -66.9375 54.0234375 C-69.92578058 53.70038014 -71.49218139 53.50265925 -73.57617188 51.26000977 C-75.97547909 47.31810636 -75.54804275 43.48958887 -74.9375 39.0234375 C-73.76794797 35.04765676 -72.16683566 31.34757868 -70.4375 27.5859375 C-69.98479736 26.57474854 -69.53209473 25.56355957 -69.06567383 24.52172852 C-65.74499636 17.30233189 -62.12195287 11.07587569 -56.9375 5.0234375 C-56.51210938 4.44078125 -56.08671875 3.858125 -55.6484375 3.2578125 C-50.26276149 -3.99636336 -42.41393684 -7.7717464 -33.8125 -9.6640625 C-21.33145762 -10.67059818 -9.69823107 -8.20885987 0 0 Z " fill="#D44D16" transform="translate(77.9375,21.9765625)"/>
<path d="M0 0 C12.18888979 7.8708526 15.18909178 26.44139869 18.1171875 39.6640625 C18.49739564 42.66693085 18.28747074 44.78572425 17.5 47.6875 C14.1875 48.8125 14.1875 48.8125 10.5 49.6875 C7.5 47.6875 7.5 47.6875 6.85571289 45.43188477 C6.7293042 44.50690186 6.60289551 43.58191895 6.47265625 42.62890625 C6.24352539 41.08879883 6.24352539 41.08879883 6.00976562 39.51757812 C5.86216797 38.43927734 5.71457031 37.36097656 5.5625 36.25 C4.06429435 22.42685851 4.06429435 22.42685851 -2.5 10.6875 C-7.43280679 9.86536554 -10.45442999 11.31285484 -14.421875 14.0234375 C-22.19279057 20.24601275 -26.41477985 27.75561335 -30.5 36.6875 C-31.28483466 38.27423095 -32.07551589 39.85809957 -32.875 41.4375 C-33.41125 42.51 -33.9475 43.5825 -34.5 44.6875 C-37.375 44.8125 -37.375 44.8125 -40.5 44.6875 C-41.16 44.0275 -41.82 43.3675 -42.5 42.6875 C-42.24317057 37.10574042 -39.76024652 32.38377374 -37.375 27.4375 C-36.97047607 26.59429199 -36.56595215 25.75108398 -36.14916992 24.88232422 C-30.57751589 13.50187778 -24.80507566 4.37320944 -12.73046875 -0.58203125 C-7.94482694 -2.14930799 -4.65906355 -1.74714883 0 0 Z " fill="#FDA792" transform="translate(59.5,34.3125)"/>
<path d="M0 0 C3.68630303 0.16383569 5.50007979 0.54173981 8.25 3.0625 C13.04951222 11.11882408 12.21199756 19.95477091 12 29 C8.39086652 28.39974412 8.07613221 28.10082374 5.6875 24.9375 C3.24984198 21.68928846 3.24984198 21.68928846 -0.5 21.3125 C-4.84223767 22.16543954 -6.19681009 23.65174539 -9 27 C-10.5625 28.8125 -10.5625 28.8125 -12 30 C-13.32 30 -14.64 30 -16 30 C-15.46383012 24.9491243 -13.73634506 21.01664732 -11.3125 16.625 C-10.95599365 15.96741699 -10.5994873 15.30983398 -10.23217773 14.63232422 C-7.35044076 9.41541993 -4.2415041 4.2415041 0 0 Z " fill="#FFAC2B" transform="translate(47,52)"/>
</svg>
