<?xml version="1.0" encoding="UTF-8"?>
<svg version="1.1" xmlns="http://www.w3.org/2000/svg" width="48" height="48">
<path d="M0 0 C5.15464632 3.72179883 7.68945136 9.27057438 8.953125 15.39453125 C10.42248649 26.98616082 10.42248649 26.98616082 7.90234375 30.4375 C6.234375 31.61328125 6.234375 31.61328125 3.234375 31.61328125 C3.04645386 30.80491821 3.04645386 30.80491821 2.85473633 29.98022461 C2.26829128 27.49960194 1.65780009 25.02548378 1.046875 22.55078125 C0.85029297 21.70322266 0.65371094 20.85566406 0.45117188 19.98242188 C-1.00336661 14.18664543 -2.87808051 10.18508202 -6.765625 5.61328125 C-10.3054727 4.2575949 -12.03737749 4.3916407 -15.640625 5.48828125 C-24.25836501 11.34834445 -28.36463407 18.94988874 -31.765625 28.61328125 C-35.640625 27.73828125 -35.640625 27.73828125 -36.765625 26.61328125 C-36.765625 18.01170338 -32.46782141 8.95865585 -26.921875 2.44921875 C-18.62946518 -4.93393561 -9.60441415 -5.29435873 0 0 Z " fill="#D44D16" transform="translate(37.765625,9.38671875)"/>
<path d="M0 0 C4.71150702 3.18719593 6.43842891 8.73997106 8 14 C8.54781286 17.33215094 8.85648472 20.62739094 9 24 C7.35 24.33 5.7 24.66 4 25 C2.61982758 20.36656401 1.4916561 15.76095796 0.5625 11.015625 C0.03193674 8.71138828 0.03193674 8.71138828 -2 6 C-7.04093176 7.26023294 -9.1819129 8.6365103 -12 13 C-13.75085783 16.29484197 -15.40256035 19.62835483 -17 23 C-18.65 22.67 -20.3 22.34 -22 22 C-19.82079279 14.08603697 -16.72147921 4.94574993 -9.5 0.3125 C-5.61196083 -1.14551469 -3.89332799 -1.3842944 0 0 Z " fill="#FDA893" transform="translate(30,17)"/>
<path d="M0 0 C1.65 0.33 3.3 0.66 5 1 C6.97094808 5.92737019 7.1799928 9.78020872 7 15 C4.50638429 13.79618552 2.31856917 12.54571278 0 11 C-0.763125 11.66 -1.52625 12.32 -2.3125 13 C-5 15 -5 15 -8 15 C-6.51194289 9.19657726 -3.40902445 4.82409121 0 0 Z " fill="#FFAD2B" transform="translate(23,26)"/>
</svg>
